<?xml version="1.0" encoding="UTF-8"?>
<svg id="Layer_1" data-name="Layer 1" xmlns="http://www.w3.org/2000/svg" viewBox="0 0 143.4 146.6">
  <defs>
    <style>
      .cls-1 {
        fill: currentColor;
      }
    </style>
  </defs>
  <path class="cls-1" d="M68.4,97.3c-13.6,0-24.7-11.1-24.7-24.7s11.1-24.7,24.7-24.7,24.7,11.1,24.7,24.7-11.1,24.7-24.7,24.7ZM68.4,59.1c-7.4,0-13.5,6-13.5,13.5s6,13.5,13.5,13.5,13.5-6,13.5-13.5-6-13.5-13.5-13.5Z"/>
  <path class="cls-1" d="M73.3,146.6H19c-10.5,0-19-8.5-19-19s8.5-19,19-19h19.6l-19.4-25.5c-6.2-8.2-7.9-18.9-4.6-28.6,3.3-9.6,11-16.9,20.7-19.5.4-.1.8-.2,1.2-.3,9.3-2.3,14.3-6.1,18-9.5,2.1-2,6.6-9.9,8.9-14.6l5.2-10.5,5,10.6c2.7,5.7,6.6,12.8,8.5,14.5,3.4,3.2,8.5,7.1,18.2,9.5.4,0,.8.2,1.2.3,9.8,2.6,17.4,9.7,20.9,19.3,3.5,9.6,2,20.3-3.9,28.7l-18.2,25.7h27.8v11.3h-35.8l-19,26.8ZM19,119.8c-4.3,0-7.8,3.5-7.8,7.8s3.5,7.8,7.8,7.8h40l-11.8-15.5h-28.2ZM61.3,119.8l8.9,11.7,8.3-11.7h-17.1ZM52.7,108.5h33.6l22.8-32.2c3.8-5.4,4.7-12.1,2.5-18.4-2.2-6.1-7-10.6-13.2-12.2-.3,0-.6-.2-.9-.2-12.3-3-19.1-8.4-23.2-12.2-1.9-1.8-4.1-5.1-6-8.4-2,3.3-4.2,6.5-6.2,8.4-4.5,4.2-11.1,9.3-23,12.2-.3,0-.6.2-.9.2-6.2,1.7-10.9,6.1-13,12.3-2.1,6.2-1,13,2.9,18.1l24.6,32.3Z"/>
</svg>
